<svg version="1.0"  width="20px" height="20px" xmlns="http://www.w3.org/2000/svg" viewBox="0 0 800.000000 800.000000" preserveAspectRatio="xMidYMid meet">
 <g transform="translate(0.000000,800.000000) scale(0.100000,-0.100000)" fill="#000000" stroke="none"> <path d="M1792 7227 c-49 -15 -122 -85 -148 -142 l-24 -50 0 -515 c0 -324 4 -529 10 -552 16 -56 68 -117 129 -152 46 -25 65 -30 120 -29 38 0 82 7 104 17 54 24 112 79 136 131 21 44 21 57 21 578 l0 533 -27 53 c-27 55 -84 105 -146 128 -39 14 -131 15 -175 0z"/> <path d="M4825 7216 c-60 -28 -111 -77 -136 -131 -17 -37 -19 -75 -19 -570 l0 -530 24 -50 c43 -94 128 -147 236 -148 107 -1 195 56 241 157 17 38 19 77 19 562 0 580 0 580 -67 649 -80 83 -200 107 -298 61z"/> <path d="M1385 6595 c-251 -56 -440 -226 -523 -470 l-27 -80 0 -1795 0 -1795 27 -80 c84 -246 278 -417 530 -469 68 -14 234 -16 1434 -16 l1357 0 -7 46 c-3 26 -6 105 -6 175 l0 129 -1332 0 c-1073 0 -1344 3 -1389 14 -110 25 -189 90 -238 196 l-26 55 -3 1388 -2 1387 2245 -2 2245 -3 3 -757 2 -758 178 -2 178 -3 -3 1135 -3 1135 -25 80 c-38 121 -92 209 -184 301 -66 66 -98 90 -176 128 -99 48 -208 76 -301 76 l-49 0 0 -297 c0 -321 -5 -365 -53 -446 -35 -58 -92 -111 -157 -144 -48 -24 -67 -27 -145 -28 -78 0 -98 4 -150 28 -78 36 -146 104 -182 181 l-28 61 -3 323 -3 322 -1164 0 -1164 0 -3 -322 -3 -323 -29 -63 c-41 -88 -123 -163 -212 -192 -178 -60 -376 34 -446 210 -21 52 -23 73 -25 370 l-3 315 -38 2 c-20 1 -64 -4 -97 -12z"/> <path d="M3142 4508 l3 -253 258 -3 257 -2 0 255 0 255 -260 0 -260 0 2 -252z"/> <path d="M3970 4505 l0 -255 255 0 255 0 0 255 0 255 -255 0 -255 0 0 -255z"/> <path d="M4772 4508 l3 -253 255 0 255 0 3 253 2 252 -260 0 -260 0 2 -252z"/> <path d="M1560 3685 l0 -255 255 0 255 0 0 255 0 255 -255 0 -255 0 0 -255z"/> <path d="M2370 3685 l0 -255 255 0 255 0 0 255 0 255 -255 0 -255 0 0 -255z"/> <path d="M3153 3688 l2 -253 258 -3 257 -2 0 255 0 255 -259 0 -260 0 2 -252z"/> <path d="M3980 3685 l0 -255 255 0 255 0 0 255 0 255 -255 0 -255 0 0 -255z"/> <path d="M4790 3685 l0 -255 255 0 255 0 0 255 0 255 -255 0 -255 0 0 -255z"/> <path d="M5706 3439 c-343 -30 -664 -194 -890 -454 -521 -601 -414 -1513 233 -1975 151 -108 312 -179 502 -222 87 -19 132 -23 274 -23 187 0 270 13 431 66 552 181 935 733 911 1314 -15 361 -142 652 -391 901 -61 61 -146 134 -188 162 -262 177 -576 259 -882 231z m369 -414 c341 -97 586 -347 683 -697 13 -48 17 -102 17 -228 0 -142 -3 -176 -23 -245 -120 -420 -491 -705 -917 -706 -230 0 -401 56 -587 193 -216 159 -359 427 -375 704 -16 280 87 547 288 740 147 141 304 222 502 260 111 21 300 12 412 -21z"/> <path d="M5739 2851 l-39 -39 0 -373 c0 -357 1 -375 20 -407 36 -59 55 -62 404 -62 365 0 379 2 416 74 28 53 22 103 -20 149 l-28 32 -266 3 -265 3 -3 287 c-3 262 -5 289 -22 315 -25 37 -66 57 -117 57 -35 0 -48 -6 -80 -39z"/> <path d="M1560 2855 l0 -255 255 0 255 0 0 255 0 255 -255 0 -255 0 0 -255z"/> <path d="M2370 2855 l0 -255 255 0 255 0 0 255 0 255 -255 0 -255 0 0 -255z"/> <path d="M3153 2858 l2 -253 258 -3 257 -2 0 255 0 255 -259 0 -260 0 2 -252z"/> <path d="M3980 2855 l0 -255 255 0 255 0 0 255 0 255 -255 0 -255 0 0 -255z"/> </g>
</svg>
