<svg version="1.0" xmlns="http://www.w3.org/2000/svg"
 width="480.000000pt" height="480.000000pt" viewBox="0 0 480.000000 480.000000"
 preserveAspectRatio="xMidYMid meet">
	<g transform="translate(0.000000,480.000000) scale(0.100000,-0.100000)"
	fill="#000000" stroke="none">
	<path d="M1045 3285 c-567 -480 -1030 -878 -1030 -885 0 -7 463 -405 1030
	-885 l1030 -871 3 478 2 478 223 0 c721 0 1238 -98 1692 -320 264 -129 466
	-278 683 -504 l122 -128 0 80 c0 112 -18 364 -36 507 -128 1009 -597 1625
	-1410 1854 -278 78 -474 101 -921 108 l-353 6 -2 476 -3 477 -1030 -871z"/>
	</g>
</svg>
