<svg xmlns="http://www.w3.org/2000/svg" width="404" height="366" viewBox="0 0 404 366"><style>.st0{fill:#FEEF01;} .st1{fill:#FEBA02;}</style><path class="st0" d="M314.1 62c2.4.4 3.6-1.6 5-2.8L365 21.4l2.8-2.1c11.3 12 22.6 24 34.1 36.3-6.1 6.7-12 13.2-18 19.6-10.3 11.1-20.6 22.2-30.8 33.4-1.8 1.9-3.9 3.7-5 6.2-7.7 6-12.9 14.4-20.2 20.8-.9.8-1 2-1 3.2-2.5-.3-3.3 1.9-4.6 3.3-38.4 41.6-76.8 83.3-115.3 124.9-6.3 6.8-12.6 13.6-19.2 20.7-40.9-47.7-81.4-95-122.1-142.5 11.4-12.3 22.6-24.4 33.9-36.6 28.2 20.8 56 41.4 83.9 62 1.2-.9 2.2-1.4 3.1-2.2 34.3-28.3 68.7-56.6 103-84.8 1.1-.9 2.7-1.6 2.4-3.5 3.9.2 5.6-3.3 8-5.3 4.9-4 10.9-7 14.1-12.8z"/><path class="st1" d="M326.9 138.9c0-1.2.1-2.4 1-3.2 7.3-6.4 12.5-14.8 20.2-20.8 7 14.7 10.8 30.4 12.6 46.5 5.3 46.2-4.9 88.9-32.4 126.6-31.7 43.3-74.5 68.1-128.1 73.2C108.4 370 24.4 305.6 8.9 215-7.3 120.2 50.6 31.1 144 9.9c65.1-14.8 121.7 3.3 169 50.5.5.5.8 1.1 1.2 1.6-3.3 5.8-9.2 8.7-14.1 12.8-2.4 2-4.1 5.5-8 5.3-.6-.5-1.3-1-1.9-1.6-37.5-37.3-82.8-50.9-134.5-42.1C130 40.7 107 52.3 87.4 69.7 42.3 109.8 25.7 160.4 39 218.6c13.8 60.1 62.4 103.8 123 113 19.4 2.9 39 2.5 58-2.5 29.3-7.8 54.5-22.7 74.9-45.5 17.8-19.9 29.9-42.9 35.2-69 5.1-25.4 4.1-50.8-3.2-75.7z"/></svg>