<svg xmlns="http://www.w3.org/2000/svg" width="927" height="560" viewBox="0 0 927 560"><style>.st0{fill:#5369D7;}</style><path class="st0" d="M464.5 559H77c-10.6 0-13-2.2-14.2-12.8-5.3-47.6-10.6-95.3-16-142.9-4.8-43.2-9.8-86.4-14.6-129.5-4.2-37.2-8.2-74.5-12.3-111.7C15.3 121.7 10.7 81.4 6.2 41c-1-8.9-2-17.9-3-26.8-.9-8 4.5-13 12.4-12C48 6.5 80.4 10.1 112.9 13c32.5 3 65 6 97.5 8.6 25.6 2 51.2 3.7 76.8 5.1 73.1 4 146.2 6.3 219.3 5 53.1-.9 106.2-3.1 159.3-6.5 33.6-2.2 67.1-4.5 100.6-7.4 41-3.6 81.9-7.4 122.7-12.6 8.4-1.1 16.8-2.1 25.3-3.1 7-.8 12.3 4.4 11.5 11.6-2.3 21.5-4.8 43-7.3 64.5-2.9 25.5-5.7 50.9-8.6 76.4-3.2 28.4-6.4 56.9-9.6 85.3l-8.4 75.9c-3.1 28.1-6.3 56.2-9.4 84.4-2.9 25.6-5.7 51.3-8.6 76.9l-8.1 72.9c-.6 4.9-4.5 8.4-9.4 8.8-1.7.1-3.3 0-5 0-129 .2-258 .2-387 .2z"/></svg>