<svg xmlns="http://www.w3.org/2000/svg" width="927" height="439" viewBox="0 0 927 439"><style>.st0{fill:#5369D7;}</style><path class="st0" d="M464 436H80.5c-10.8 0-13.1-2.4-14.6-13.2-4.3-31.1-8.9-62.3-13.4-93.4-4.5-31.3-9-62.6-13.6-93.9-4.9-33.6-9.7-67.2-14.6-100.8-4.5-31-8.9-61.9-13.4-92.9C9.7 33.4 8.5 25 7.2 16.6c-1.3-8.2 4-13.5 12.2-12.4C48.5 8 77.6 11.3 106.7 14c31.7 2.9 63.3 6 95 8.6 25.7 2.1 51.5 3.7 77.3 5.3 54.7 3.4 109.5 5.2 164.3 5.8 51.7.6 103.3-.7 154.9-3.1 38.1-1.8 76.2-4.1 114.2-6.9 45.7-3.3 91.3-7.3 136.8-12.6 20.3-2.4 40.7-4.7 61-7 7.1-.8 12.5 4.4 11.4 11.5-5.6 40.2-11.5 80.4-17.3 120.6-6.2 42.7-12.2 85.3-18.4 128-6.5 45.1-13.1 90.2-19.7 135.4-1.2 8.6-2.3 17.2-3.6 25.7-1.2 8.2-4.3 10.8-12.7 10.8h-123c-87.5-.1-175.2-.1-262.9-.1z"/></svg>