<svg xmlns="http://www.w3.org/2000/svg" width="731" height="439" viewBox="0 0 731 439"><style>.st0{fill:#5369D7;}</style><path class="st0" d="M366 439H75.5c-9.7 0-12.3-2.4-13.7-11.8C54 373 46 318.8 38.2 264.7 31 215 24 165.2 16.8 115.5 12.1 82.2 7.2 48.9 2.3 15.7 1.1 7.3 6.6 2 15.1 3.7c32.8 6.6 65.9 11.4 99.1 15.4 65.4 7.7 131 11.6 196.8 13.2 54.8 1.3 109.6.7 164.4-1.7 39.9-1.7 79.8-4.6 119.6-8.8 41.2-4.4 82.3-9.8 122.9-18.4 7.1-1.5 13 3.9 11.9 11.2-3.4 23.7-6.9 47.4-10.4 71.1-4.8 33.4-9.6 66.9-14.4 100.3-4.8 33.4-9.6 66.9-14.5 100.3-4.8 33.6-9.7 67.2-14.5 100.8-2.1 14.3-4 28.7-6.1 43-.7 4.9-4.5 8.4-9.4 8.8-1.5.1-3 0-4.5 0-96.7.1-193.3.1-290 .1z"/></svg>