<svg xmlns="http://www.w3.org/2000/svg" width="732" height="560" viewBox="0 0 732 560"><style>.st0{fill:#5369D7;}</style><path class="st0" d="M366.9 559H76.4c-10.1 0-12.8-2.1-14-12-3-25.3-5.7-50.6-8.5-75.9-3.2-28.4-6.4-56.9-9.6-85.3-2.8-25.1-5.6-50.3-8.4-75.4-3.2-28.6-6.5-57.2-9.7-85.8-2.8-25.1-5.5-50.3-8.4-75.4-3.2-28.5-6.4-56.9-9.6-85.3-1.8-16-3.3-32.1-5.5-48.1-1.1-9.9 5.5-15 14.7-13 35 7.7 70.5 12.3 106 16.3 50.8 5.8 101.8 9.2 152.9 11.2 46.5 1.8 93 2.2 139.4 1.3 41.6-.8 83.3-2.5 124.8-5.8 60.1-4.8 120-11.1 179.1-23.4 6.4-1.3 12 3.4 11.4 10.3-.9 11.1-2.3 22.2-3.5 33.3-2.8 25.3-5.7 50.6-8.5 75.9-3.2 28.8-6.5 57.6-9.7 86.3-2.8 25.1-5.6 50.3-8.4 75.4-3.2 28.5-6.4 56.9-9.6 85.3l-8.4 75.9c-3.2 28.3-6.3 56.6-9.5 84.9-.8 6.8-1.4 13.6-2.3 20.3-.7 5.4-4.3 8.6-9.7 8.9-1.5.1-3 0-4.5 0-96.7.1-193.3.1-290 .1z"/></svg>