<svg xmlns="http://www.w3.org/2000/svg" width="504" height="228" viewBox="0 0 504 228"><style>.st0{fill:#FEEF00;} .st1{fill:#89D6FD;} .st2{fill:#53A4CF;} .st3{fill:#FE8AD9;} .st4{fill:#FE5453;} .st5{fill:#1DBC9B;} .st6{fill:#ADDFF9;}</style><path class="st0" d="M327.5 197.6c-16.2 14.2-34.6 24-56.1 27.6-34 5.7-64.3-2.5-91-24-1.4-1.1-2.9-2.2-4.3-3.4-9.2-9.2-17.2-19.3-23.5-30.8-9.9-19.5-13.7-40.2-12.5-61.9 1.4-8.4 2.9-16.7 5.1-24.9 3.4-8.5 7.3-16.8 11.7-24.9 12.2-18.2 27.7-32.6 47.8-41.8C254.3-9.4 312 6.2 343.4 50.9c1 1.5 2.2 2.9 3.3 4.4 4.3 8.1 8.5 16.2 11.5 24.8 2.3 8.2 4 16.5 5 24.9 1.5 21.8-2.6 42.4-12.2 62-6.5 11.3-14.1 21.6-23.5 30.6z"/><path class="st1" d="M351 167.1c9.6-19.6 13.7-40.2 12.2-62 19.2-.1 38.4-.1 57.6-.2h24.3v22.3c.4 10.2-.6 20.5.7 30.8.4 3.2 2.1 7.3-1.9 10-.9-1-2.1-.9-3.2-.9-16.9 0-33.9.1-50.8.1H371c-6.7-.1-13.3-.1-20-.1zM140.1 105c-1.2 21.7 2.6 42.4 12.5 61.9-5.9 0-11.7.1-17.6.1h-18.9c-16.9 0-33.9-.1-50.8-.1-1.1 0-2.4-.2-3.2.9-2.6-.9-2.2-3.1-2-5 1.1-11.9.7-23.8.9-35.7v-22.3h24.3c18.2.1 36.5.2 54.8.2z"/><path class="st2" d="M443.9 167.9c4-2.7 2.2-6.8 1.9-10-1.3-10.3-.3-20.5-.7-30.8 17.8.5 35.6-.4 54.5.7-8.4 10.6-16.2 20.5-24.3 30.8 8.1 10.2 16 20.1 24.7 31.2H394.2c0-2.4 2.1-2.3 3.5-2.8 15.3-6.4 30.8-12.8 46.2-19.1zM60.9 127.1c-.1 11.9.3 23.8-.9 35.7-.2 1.9-.6 4.1 2 5 15.4 6.4 30.9 12.7 46.3 19.1 1.4.6 3.5.5 3.5 2.8H6c8.7-10.9 16.6-21 24.7-31.2-8-10.1-15.9-20-23.7-29.9.1-.5.2-1.1.3-1.6 18 .1 35.8.1 53.6.1z"/><path class="st3" d="M420.8 104.9c-19.2.1-38.4.1-57.6.2-1-8.4-2.8-16.7-5-24.9 12.6-.1 25.1-.1 37.7-.2h24.9v24.9zM140.1 105c-18.3-.1-36.6-.1-54.9-.2V79.9h24.9c11.7.1 23.4.1 35.1.2-2.1 8.2-3.7 16.6-5.1 24.9z"/><path class="st4" d="M395.9 80c-12.6.1-25.1.1-37.7.2-3-8.7-7.3-16.8-11.5-24.8h49.2V80z"/><path class="st5" d="M351 167.1h19.9v35c-14.7-1.5-29.1-3-43.5-4.5 9.5-9 17.1-19.3 23.6-30.5z"/><path class="st4" d="M145.2 80.1c-11.7-.1-23.4-.1-35.1-.2V55.2h46.8c-4.4 8.1-8.3 16.4-11.7 24.9z"/><path class="st5" d="M135.1 167.1c5.9 0 11.7-.1 17.6-.1 6.2 11.5 14.2 21.6 23.5 30.8-13.5 1.4-27 2.9-41 4.4-.1-12-.1-23.6-.1-35.1z"/><path class="st6" d="M111.8 189.8c0-2.4-2.1-2.3-3.5-2.8-15.4-6.4-30.9-12.7-46.3-19.1.9-1 2.1-.9 3.2-.9 16.9 0 33.9.1 50.8.1-.1 6.4-.2 12.8-.2 19.2.2 3.1-.9 4.3-4 3.5zM443.9 167.9c-15.4 6.4-30.9 12.7-46.3 19.1-1.4.6-3.5.5-3.5 2.8-3 .8-4.2-.4-4.1-3.5.1-6.4-.1-12.8-.2-19.2 16.9 0 33.9-.1 50.8-.1 1.2 0 2.4-.2 3.3.9z"/></svg>